<?xml version="1.0" encoding="utf-8"?>
<!-- Generator: Adobe Illustrator 25.0.1, SVG Export Plug-In . SVG Version: 6.00 Build 0)  -->
<svg version="1.1" id="Layer_1" xmlns="http://www.w3.org/2000/svg" xmlns:xlink="http://www.w3.org/1999/xlink" x="0px" y="0px"
	 viewBox="0 0 578.5 185.5" style="enable-background:new 0 0 578.5 185.5;" xml:space="preserve">
<style type="text/css">
	.st0{display:none;}
</style>
<path class="st0" d="M503.5,117.2c0,4.9,2.4,8.8,9,8.8c7.8,0,16.1-5.6,16.6-18.3c-3.6-0.6-7.3-0.9-11-1
	C510.3,106.7,503.5,108.9,503.5,117.2z"/>
<path class="st0" d="M0,0v185.5h578.5V0H0z M163.8,139.9h-32V96.9c0-13.2-4.4-18.3-13.1-18.3c-10.5,0-14.8,7.5-14.8,18.1v26.6h10.1
	V140h-32V96.9c0-13.2-4.4-18.3-13.1-18.3c-10.5,0-14.8,7.5-14.8,18.1v26.6h14.5V140H22.2v-16.6h10.2V80.1h-11V63.5h32.9V75
	c4.6-8.1,12.5-13,23.2-13c11,0,21.2,5.3,24.9,16.5c4.2-10.2,12.9-16.5,24.9-16.5c13.7,0,26.3,8.3,26.3,26.5v34.9h10.2L163.8,139.9z
	 M212.4,141.6c-23.6,0-39.8-14.4-39.8-38.8c0-22.4,13.6-40.9,41-40.9s40.9,18.5,40.9,39.8C254.5,126.2,236.8,141.6,212.4,141.6
	L212.4,141.6z M334.1,139.9h-66.8l-2.2-11.5l42-48.3h-23.9l-3.4,11.9l-15.8-1.7l2.7-26.8H334l1.7,11.5l-42.4,48.3H318l3.6-11.9
	l17.3,1.7L334.1,139.9z M375.5,139.9h-22.9v-27.5h22.9V139.9z M375.5,90.9h-22.9V63.5h22.9V90.9z M387.5,139.9l33.1-116.6h21.5
	l-33.1,116.6H387.5z M431.9,139.9L465,23.3h21.5l-33,116.6H431.9z M545.8,141.6c-10.2,0-15.8-5.9-16.8-15.3
	c-4.4,7.8-12.2,15.3-24.6,15.3c-11,0-23.6-5.9-23.6-21.9c0-18.8,18.1-23.2,35.6-23.2c4.2,0,8.4,0.2,12.5,0.7v-2.5
	c0-7.8-0.2-17.1-12.5-17.1c-4.6,0-8.1,0.3-11.7,2.2L502,90.6l-17.5-1.9l3.4-19.8c13.4-5.4,20.2-7,32.7-7c16.5,0,30.3,8.5,30.3,25.9
	v33.2c0,4.4,1.7,5.9,5.3,5.9c1.1,0,2.2-0.2,3.2-0.5l0.2,11.5C555.4,140.3,550.7,141.6,545.8,141.6L545.8,141.6z"/>
<path class="st0" d="M213.3,78.7c-11.2,0-18.1,8.3-18.1,22.7c0,13.2,6.1,23.4,18,23.4c11.4,0,18.8-9.2,18.8-23.7
	C231.9,85.7,223.6,78.7,213.3,78.7L213.3,78.7z"/>
</svg>
